<?xml version="1.0" standalone="no"?>
<!DOCTYPE svg PUBLIC "-//W3C//DTD SVG 20010904//EN"
 "http://www.w3.org/TR/2001/REC-SVG-20010904/DTD/svg10.dtd">
<svg version="1.0" xmlns="http://www.w3.org/2000/svg"
 width="519.000000pt" height="481.000000pt" viewBox="0 0 519.000000 481.000000"
 preserveAspectRatio="xMidYMid meet">

<g transform="translate(0.000000,481.000000) scale(0.100000,-0.100000)"
fill="#000000" stroke="none">
<path d="M2452 3318 c-6 -6 -12 -25 -12 -40 0 -25 -3 -28 -34 -28 -33 0 -35
-2 -38 -37 -3 -36 -5 -38 -40 -41 -36 -3 -38 -5 -38 -37 0 -31 -3 -34 -32 -37
-18 -2 -87 -1 -153 2 l-120 5 -3 33 -3 32 -75 0 -74 0 0 -35 c0 -34 1 -35 40
-35 l40 0 0 -40 c0 -40 0 -40 -39 -40 -39 0 -40 1 -43 38 l-3 37 -70 0 -70 0
-9 -37 c-8 -32 -14 -37 -40 -40 -28 -3 -31 -7 -34 -40 -3 -37 -4 -38 -43 -38
-38 0 -39 -1 -39 -35 0 -30 -4 -35 -27 -41 -16 -3 -34 -7 -41 -10 -10 -3 -12
-121 -10 -566 l3 -562 37 -9 c32 -8 37 -13 40 -40 3 -29 7 -32 40 -35 35 -3
37 -5 40 -40 l3 -37 228 -3 227 -2 0 30 c0 30 6 35 33 24 16 -6 12 -44 -5 -44
-5 0 -6 6 -2 13 4 6 3 8 -1 4 -13 -11 -15 -38 -2 -30 6 4 8 0 4 -11 -5 -14 -3
-15 13 -6 27 14 28 13 32 -22 l3 -33 190 1 190 0 6 37 6 37 -202 0 -201 0 4
35 4 35 194 0 194 0 0 -29 c0 -17 5 -33 10 -36 6 -4 7 -11 4 -17 -5 -8 -1 -9
12 -5 16 6 17 5 4 -6 -18 -15 -24 -37 -10 -37 5 0 10 6 10 13 0 8 4 7 11 -3 9
-13 10 -13 6 0 -2 8 0 23 5 33 5 11 5 17 -2 17 -5 0 -10 7 -10 15 0 8 -5 15
-11 15 -5 0 -7 -6 -3 -12 4 -7 3 -10 -1 -5 -16 14 -16 47 1 47 9 0 12 -5 8
-12 -4 -6 -3 -8 4 -4 5 3 13 0 16 -6 3 -7 5 -4 3 7 -1 14 -11 21 -30 23 -24 3
-27 7 -27 43 0 39 0 39 40 39 34 0 40 3 41 23 1 12 2 27 4 32 1 6 3 15 4 20 1
6 6 3 12 -5 7 -11 12 -12 15 -3 3 7 11 10 19 7 10 -4 15 6 17 38 3 40 5 43 32
43 16 1 34 -4 40 -11 6 -6 18 -9 28 -6 16 4 17 1 7 -27 -12 -34 -24 -44 -14
-11 4 11 2 20 -4 20 -7 0 -11 -24 -11 -60 0 -63 2 -66 53 -61 12 2 17 -5 17
-23 0 -14 -4 -26 -9 -26 -5 0 -7 9 -4 19 4 15 0 19 -21 17 -23 -1 -24 -3 -10
-13 9 -6 13 -16 10 -22 -4 -5 4 -12 16 -14 15 -3 9 -5 -14 -6 -37 -1 -38 0
-38 34 0 34 -1 35 -40 35 -39 0 -40 -1 -40 -35 0 -34 -1 -35 -40 -35 l-40 0 0
-40 0 -40 423 2 422 3 3 38 c3 36 3 37 -32 37 -34 0 -36 2 -36 35 0 33 2 35
35 35 29 0 35 -4 35 -21 0 -18 -4 -20 -25 -15 -19 5 -23 3 -19 -8 3 -8 14 -13
25 -11 10 2 19 -1 19 -6 0 -6 17 -9 38 -7 33 3 37 6 40 33 4 33 16 45 50 45
19 0 22 5 22 35 0 32 3 35 29 35 16 0 34 6 40 14 8 9 10 178 9 612 l-3 599
-35 0 -35 0 -3 -148 -3 -147 -37 3 -37 2 -1 52 c-1 29 -4 59 -7 67 -7 17 -57
23 -57 7 0 -5 10 -7 22 -3 19 5 20 4 7 -10 -7 -9 -17 -14 -20 -12 -3 1 -6 -20
-6 -49 0 -46 0 -47 4 -9 5 50 23 57 23 8 0 -47 10 -72 21 -54 7 11 9 11 9 -1
0 -8 -8 -20 -17 -28 -17 -14 -17 -14 0 -9 13 4 17 0 17 -19 l0 -25 -340 0
-340 0 0 35 0 35 -80 0 -80 0 0 40 0 40 -189 0 -190 0 -3 -37 -3 -38 -77 -3
-78 -3 0 -34 0 -35 -305 0 -305 0 0 115 0 115 40 0 c39 0 40 1 40 35 0 33 2
35 35 35 34 0 35 1 35 40 l0 40 40 0 40 0 0 -40 0 -40 114 0 c63 0 117 4 120
8 3 5 19 7 36 4 28 -4 30 -2 30 27 0 28 -3 31 -29 31 -16 0 -32 -5 -34 -10 -3
-6 -4 -5 -3 2 2 9 34 14 114 16 l112 3 0 -42 0 -42 61 7 c34 3 149 6 255 6
187 0 193 1 191 20 -1 12 -8 20 -19 20 -10 0 -18 5 -18 10 0 13 30 9 46 -5 6
-5 9 -16 6 -23 -7 -19 16 -32 61 -32 37 0 37 0 37 40 l0 40 75 0 75 0 0 -40 0
-40 189 0 c118 0 192 4 196 10 4 6 7 24 7 40 1 22 6 30 20 30 20 0 25 -26 6
-33 -7 -3 -8 -6 -2 -6 5 -1 19 6 30 15 10 8 13 13 7 9 -7 -3 -13 -1 -13 4 0 7
32 11 85 11 l85 0 0 34 c0 43 -8 46 -126 46 l-94 0 0 35 0 35 -155 0 -155 0 0
-35 0 -35 121 0 c112 0 121 -1 126 -20 5 -20 43 -29 43 -10 0 5 -8 7 -17 4
-15 -5 -16 -4 -3 5 25 18 30 13 29 -26 -1 -21 -4 -29 -6 -19 -4 15 -7 16 -14
5 -6 -11 -42 -15 -149 -17 l-140 -4 0 35 0 35 -75 7 -75 7 0 34 c0 31 -2 33
-37 36 -36 3 -38 5 -41 41 -3 34 -5 37 -35 37 -48 0 -65 -14 -49 -40 17 -29
16 -30 -28 -30 l-40 0 0 -40 0 -40 40 0 c33 0 40 3 40 20 0 24 8 25 32 3 18
-16 18 -16 12 0 -3 9 -11 17 -18 17 -6 0 -4 5 4 11 12 8 10 9 -7 4 -14 -4 -23
-2 -23 4 0 6 16 11 35 11 33 0 35 -2 35 -35 0 -33 -2 -35 -35 -35 -35 0 -35 0
-35 -44 0 -25 -4 -48 -10 -51 -5 -3 -10 -1 -10 4 0 6 -13 11 -30 11 -17 0 -30
-5 -30 -12 0 -10 -3 -9 -9 1 -7 11 -9 11 -14 0 -4 -10 -6 -10 -6 -1 -1 9 -42
12 -172 12 l-170 0 3 -22 c3 -23 3 -23 200 -23 108 0 194 -3 191 -7 -2 -5 -94
-8 -204 -8 l-199 0 0 70 0 70 40 0 c39 0 40 1 40 35 0 33 2 35 35 35 34 0 35
1 35 40 l0 40 156 0 155 0 -3 38 -3 37 -140 3 c-101 2 -144 -1 -153 -10z
m-476 -262 c1 -17 -1 -25 -3 -18 -3 6 -9 12 -14 12 -6 0 -7 -4 -4 -10 7 -12 3
-12 -20 -3 -15 5 -14 8 6 20 21 12 21 13 3 8 -13 -3 -21 -1 -21 8 0 7 12 13
26 13 22 1 26 -3 27 -30z m533 -66 l176 -7 -184 1 c-148 1 -185 4 -189 15 -3
9 0 11 8 6 7 -4 92 -11 189 -15z m-496 -8 c-2 -10 -11 -19 -19 -19 -17 0 -18
4 -1 22 17 20 26 18 20 -3z m23 -19 c-10 -10 -19 5 -10 18 6 11 8 11 12 0 2
-7 1 -15 -2 -18z m1464 -185 c0 -28 -2 -49 -4 -47 -8 9 -13 99 -5 99 5 0 9
-23 9 -52z m-830 -109 l0 -40 58 1 c95 3 92 4 92 -34 0 -41 19 -59 54 -50 20
5 26 2 26 -10 0 -9 -7 -16 -15 -16 -8 0 -15 -4 -15 -10 0 -5 7 -7 15 -4 8 4
15 2 15 -3 0 -5 -9 -9 -20 -10 -11 -1 -20 3 -20 8 0 6 -7 3 -16 -5 -8 -9 -19
-16 -23 -16 -4 0 -5 -16 -3 -35 4 -34 4 -35 -32 -35 l-37 0 3 -77 c3 -80 13
-94 46 -69 11 7 11 11 0 17 -10 7 -10 9 0 9 6 0 12 5 12 11 0 5 -4 7 -10 4 -5
-3 -18 -1 -27 4 -15 9 -13 10 15 11 l32 0 0 -265 c0 -180 -3 -265 -11 -265 -5
0 -7 6 -3 13 5 8 2 8 -9 -2 -21 -17 -22 -2 -2 25 16 21 19 35 8 33 -5 -1 -18
-1 -30 0 l-23 1 0 195 0 195 -40 0 -40 0 0 -190 0 -190 -40 0 -40 0 -1 -42
c-1 -24 -3 -35 -6 -25 -2 9 -9 17 -14 17 -6 0 -8 -4 -5 -9 3 -5 -3 -11 -13
-14 -22 -5 -39 22 -20 33 8 6 8 9 0 14 -6 4 -11 2 -11 -4 0 -7 -9 -9 -22 -5
-21 5 -21 5 -6 -8 15 -12 15 -14 0 -25 -15 -11 -14 -12 5 -7 18 5 22 3 17 -9
-3 -9 -14 -16 -23 -17 -13 0 -12 -2 3 -8 18 -7 18 -8 2 -14 -9 -4 -14 -11 -11
-17 4 -7 -54 -10 -169 -10 l-175 0 -3 37 c-3 35 -5 37 -38 38 -33 0 -35 2 -38
37 -3 35 -5 37 -40 40 l-37 3 -1 145 c0 135 0 137 3 23 2 -68 7 -123 11 -123
4 0 7 59 7 130 0 72 -3 130 -7 130 -4 0 -10 16 -14 35 -6 33 -9 35 -45 35
l-39 0 0 -190 c0 -144 3 -190 13 -192 6 -1 23 -2 37 -2 22 -1 26 -6 30 -46 5
-44 6 -45 38 -42 30 2 32 0 32 -33 0 -34 1 -35 40 -35 l40 0 0 -41 0 -42 -52
7 c-29 3 -63 6 -75 6 -19 0 -23 5 -23 34 0 33 -2 35 -37 38 l-38 3 -3 72 -3
72 -30 -1 c-20 -1 -26 -4 -17 -9 10 -7 10 -9 -1 -9 -8 0 -11 -3 -8 -6 4 -4 13
-1 21 5 10 8 16 9 21 1 3 -5 -1 -10 -10 -10 -9 0 -13 -4 -10 -10 3 -6 -1 -7
-9 -4 -9 3 -16 1 -16 -5 0 -15 37 -14 43 2 3 7 6 4 6 -6 1 -14 -5 -18 -26 -15
l-28 3 -3 245 -2 246 32 9 c31 9 33 13 36 58 l3 47 40 0 c39 0 39 0 39 40 l0
40 40 0 c39 0 40 1 41 38 0 32 1 34 9 15 5 -13 12 -23 15 -23 4 0 3 5 0 10 -3
6 0 10 7 10 9 0 9 3 -2 10 -12 8 -11 10 8 10 19 0 21 -3 12 -19 -5 -11 -10
-26 -9 -33 0 -10 2 -10 6 1 5 11 7 11 14 0 7 -10 8 -6 5 12 -6 36 4 47 43 51
20 2 36 9 39 18 4 12 2 13 -9 3 -7 -7 -23 -13 -36 -13 -19 0 -23 5 -23 29 0
29 0 29 75 36 l75 7 0 34 0 34 190 0 190 0 0 -41z m-1000 -135 c0 -17 -19 -18
-40 -3 -12 9 -10 10 8 6 19 -5 21 -3 11 9 -10 12 -9 13 5 8 9 -3 16 -12 16
-20z m1689 -18 c0 -26 -2 -28 -9 -11 -7 17 -9 17 -9 3 -1 -21 -17 -24 -24 -5
-4 9 -8 8 -16 -3 -8 -12 -10 -7 -10 20 1 19 3 28 6 18 2 -9 11 -19 19 -22 17
-7 19 10 2 18 -7 3 -2 3 12 -1 22 -5 23 -4 11 11 -12 14 -12 16 3 10 10 -4 16
-17 15 -38z m-1756 27 c-7 -2 -13 -9 -13 -14 0 -6 4 -8 9 -4 6 3 16 -1 23 -8
7 -8 20 -12 30 -9 10 2 18 0 18 -5 0 -5 -16 -9 -36 -10 -21 0 -31 3 -24 7 7 4
8 10 3 13 -4 3 -25 -5 -46 -17 -32 -20 -35 -25 -23 -35 9 -7 21 -11 28 -8 8 3
6 6 -5 6 -10 1 -16 5 -12 11 3 5 13 6 21 3 11 -4 15 -16 12 -39 -4 -32 -2 -34
27 -35 16 -1 35 -1 41 0 6 1 11 -15 12 -35 1 -31 -1 -35 -21 -34 -53 5 -57 2
-57 -40 0 -42 7 -46 63 -41 13 2 17 -5 17 -33 0 -35 -1 -36 -35 -36 -29 0 -35
4 -33 18 2 13 -5 18 -30 20 -28 3 -33 7 -29 23 3 10 2 19 -2 19 -4 0 -7 -33
-7 -72 -1 -40 1 -67 3 -60 3 6 13 12 24 12 10 0 19 4 19 9 0 5 -10 7 -22 4
-19 -4 -20 -3 -8 6 32 23 42 13 37 -35 -4 -42 -18 -63 -40 -64 -5 0 -6 -4 -3
-9 4 -5 0 -12 -6 -14 -10 -4 -10 -6 0 -6 7 -1 15 6 18 14 4 8 12 15 19 15 7 0
15 7 19 15 3 9 19 15 41 15 33 0 35 -2 35 -32 0 -18 -4 -28 -8 -22 -4 6 -15
13 -24 17 -13 5 -18 1 -18 -13 0 -11 -3 -19 -7 -19 -23 4 -28 -5 -25 -41 4
-39 5 -40 43 -40 38 0 39 -1 39 -35 0 -33 -2 -35 -36 -35 -21 0 -33 4 -29 10
3 6 -3 10 -14 10 -12 0 -21 -4 -21 -8 0 -5 -9 -18 -20 -30 -12 -12 -16 -22
-11 -22 5 0 18 -3 28 -6 15 -5 15 -4 3 5 -13 9 -13 11 0 11 10 0 11 3 4 8 -9
5 -8 11 2 20 12 11 14 6 14 -27 0 -34 -3 -40 -17 -36 -10 3 0 -3 22 -14 21
-11 43 -17 47 -15 4 3 8 1 8 -3 0 -13 -91 -14 -107 -2 -9 8 -13 8 -13 0 0 -9
11 -14 73 -26 9 -2 17 0 17 3 0 4 11 8 25 8 19 2 25 -3 25 -20 0 -17 -2 -18
-10 -6 -6 10 -10 11 -10 3 0 -7 -5 -13 -11 -13 -5 0 -7 6 -3 13 6 9 4 9 -7 0
-16 -15 -33 -17 -24 -3 3 6 -1 10 -10 10 -9 0 -13 -4 -10 -10 4 -6 -8 -10 -29
-10 l-36 0 0 415 0 415 48 -1 c26 0 41 -3 35 -6z m178 -28 c16 -6 28 -25 14
-25 -13 0 -45 36 -44 50 1 12 2 11 6 -2 2 -9 13 -20 24 -23z m37 -7 c-2 -9
-11 -5 -27 11 -22 23 -22 24 -2 18 12 -3 21 0 22 6 1 7 3 4 6 -5 2 -10 3 -24
1 -30z m162 25 c0 -7 -9 -13 -20 -13 -12 0 -20 -7 -20 -17 0 -14 -2 -15 -9 -4
-7 11 -9 11 -14 0 -3 -8 -6 0 -6 16 -1 28 2 30 34 31 23 0 35 -4 35 -13z
m1050 2 c0 -5 5 -3 10 5 8 12 10 11 10 -6 0 -19 -3 -20 -35 -10 -41 13 -45 21
-10 21 14 0 25 -4 25 -10z m166 -5 c3 0 2 5 -1 10 -3 6 -1 10 5 10 6 0 10 -8
8 -17 -2 -10 -10 -17 -17 -15 -8 2 -11 -3 -8 -11 4 -10 -1 -14 -17 -13 -17 1
-23 8 -24 28 -2 26 -1 27 24 18 14 -6 28 -10 30 -10z m366 -19 l23 0 -22 9
c-13 5 -23 15 -23 22 0 9 3 9 12 0 15 -15 32 -16 23 -2 -3 6 -1 10 4 10 6 0
11 -13 11 -28 0 -26 -3 -29 -33 -29 -30 0 -33 3 -35 31 -1 28 0 29 8 9 6 -15
18 -23 32 -22z m-532 -6 c24 -14 24 -14 3 -15 -12 0 -25 5 -29 11 -4 8 -9 7
-15 -2 -7 -11 -9 -10 -9 4 0 21 16 21 50 2z m-1050 -5 c0 -5 -4 -10 -10 -10
-5 0 -10 5 -10 10 0 6 5 10 10 10 6 0 10 -4 10 -10z m-237 -35 c-1 -5 -5 -19
-9 -29 -5 -14 -4 -17 4 -12 7 4 12 2 12 -3 0 -6 -17 -11 -37 -10 -31 0 -34 2
-18 9 18 8 18 9 2 9 -10 1 -15 6 -12 11 4 6 15 8 25 5 11 -3 20 0 24 10 3 8 1
15 -4 15 -6 0 -10 -5 -10 -11 0 -8 -4 -9 -13 0 -8 6 -17 8 -20 4 -4 -3 -7 -1
-7 6 0 8 12 11 33 9 17 -2 31 -7 30 -13z m118 3 c0 -10 2 -10 6 0 11 27 33 12
33 -23 0 -19 -5 -35 -11 -35 -5 0 -8 4 -5 8 3 5 -1 9 -9 9 -8 0 -12 -4 -9 -9
3 -4 -4 -8 -15 -8 -17 0 -21 6 -21 35 0 24 5 35 15 35 8 0 15 -6 16 -12z
m1115 0 c5 -7 2 -9 -8 -6 -15 6 -44 -29 -34 -40 3 -3 6 -1 6 5 0 6 7 14 16 17
14 5 15 4 5 -8 -9 -11 -9 -15 1 -19 7 -3 -2 -6 -19 -6 -38 -1 -45 22 -15 45
16 13 16 14 0 8 -10 -3 -18 -1 -18 5 0 15 57 14 66 -1z m104 -3 c-10 -12 -10
-15 0 -15 7 0 10 -7 6 -15 -3 -8 -3 -15 0 -15 9 0 29 24 32 39 3 12 0 12 -13
1 -13 -11 -15 -10 -9 4 12 30 34 18 34 -19 0 -33 -2 -35 -35 -35 -33 0 -35 2
-35 35 0 26 4 35 16 35 14 0 14 -3 4 -15z m198 -21 c-2 -31 -5 -34 -35 -34
-18 0 -33 5 -33 11 0 5 4 7 10 4 6 -3 7 1 4 10 -5 13 -2 15 20 9 15 -3 26 -2
26 4 0 5 -6 10 -12 9 -31 -1 -49 4 -44 11 3 5 19 9 36 10 29 1 30 -1 28 -34z
m160 1 c-1 -33 -4 -35 -34 -35 -30 0 -32 2 -31 35 1 33 3 35 34 35 31 0 32 -2
31 -35z m-1618 -63 c0 -10 -6 -24 -12 -31 -10 -11 -10 -13 0 -7 6 4 12 2 12
-3 0 -6 -15 -9 -32 -8 -33 3 -35 7 -22 41 5 14 4 17 -4 12 -7 -4 -12 -2 -12 3
0 6 16 11 35 11 27 0 35 -4 35 -18z m1080 -17 c0 -33 -2 -35 -35 -35 -33 0
-35 2 -35 35 0 33 2 35 35 35 33 0 35 -2 35 -35z m310 26 c0 -5 -14 -8 -31 -6
-45 6 -49 15 -6 15 21 0 37 -4 37 -9z m150 -27 c0 -32 -2 -34 -35 -34 -33 0
-35 2 -35 34 0 32 2 34 35 34 33 0 35 -2 35 -34z m230 1 c0 -33 -2 -35 -35
-35 -33 0 -35 2 -35 35 0 33 2 35 35 35 33 0 35 -2 35 -35z m-387 -2 c10 -6 9
-33 -3 -33 -5 0 -7 8 -4 18 5 16 5 16 -6 0 -6 -10 -20 -18 -30 -18 -15 0 -19
6 -18 25 2 21 6 23 28 18 14 -3 28 -8 33 -10z m-1465 -75 c-2 -25 -18 -42 -18
-18 0 6 -5 10 -11 10 -6 0 -9 -6 -6 -13 3 -8 0 -14 -7 -14 -7 0 -13 11 -14 24
-1 14 2 21 8 18 6 -3 10 -2 10 4 0 5 -6 11 -12 14 -7 2 2 4 20 4 29 0 32 -3
30 -29z m142 22 c-18 -12 -50 -13 -50 -2 0 4 15 8 33 9 23 2 28 0 17 -7z
m1220 0 c0 -5 -7 -7 -15 -4 -9 4 -15 0 -15 -9 0 -10 8 -13 26 -9 16 3 23 9 20
18 -3 8 -1 14 4 14 6 0 10 -15 9 -32 0 -18 -3 -27 -6 -20 -2 6 -12 12 -21 12
-15 0 -15 -2 -2 -10 12 -8 10 -10 -10 -10 -21 0 -26 5 -28 30 -2 24 2 30 18
30 11 0 20 -4 20 -10z m153 3 c3 -5 -6 -8 -19 -8 -13 0 -24 3 -24 8 0 4 9 7
19 7 11 0 22 -3 24 -7z m187 -9 c0 -8 -5 -14 -11 -14 -8 0 -8 -4 0 -14 9 -11
8 -15 -5 -20 -9 -4 -19 -4 -22 -1 -3 3 0 5 7 5 7 0 9 5 6 10 -4 6 -1 17 5 25
8 10 9 15 2 15 -6 0 -13 -9 -17 -19 -7 -24 -35 -36 -35 -16 0 8 6 15 13 16 10
0 10 2 0 6 -25 9 -13 21 22 21 23 0 35 -5 35 -14z m-658 -22 c3 -11 0 -19 -8
-19 -7 0 -12 9 -11 19 1 10 4 18 8 18 4 0 9 -8 11 -18z m495 0 c-1 -18 -27
-27 -27 -10 0 5 -4 7 -9 3 -5 -3 -12 -1 -15 4 -4 5 6 12 21 14 16 2 29 5 30 6
1 0 1 -7 0 -17z m-71 -69 c3 -27 0 -33 -16 -33 -11 0 -20 7 -20 15 0 8 5 15
10 15 6 0 10 8 9 18 0 9 -3 12 -5 6 -3 -7 -14 -10 -24 -7 -31 8 -23 21 11 20
28 -2 32 -6 35 -34z m152 -3 c2 -26 0 -31 -8 -20 -6 10 -10 11 -10 3 0 -7 -11
-13 -25 -13 -22 0 -25 4 -25 35 0 33 2 35 33 32 29 -2 32 -6 35 -37z m232 5
c0 -33 -2 -35 -35 -35 -33 0 -35 2 -35 35 0 33 2 35 35 35 33 0 35 -2 35 -35z
m-427 -15 c-3 -11 -9 -20 -14 -20 -5 0 -9 9 -9 20 0 11 6 20 14 20 9 0 12 -7
9 -20z m-1583 2 c-23 -4 -23 -5 -6 -12 19 -6 19 -7 -2 -12 -17 -5 -22 -2 -22
13 0 14 7 19 28 18 27 -2 27 -2 2 -7z m166 -49 c-4 -28 -66 -45 -66 -18 0 8 6
15 13 15 8 0 7 4 -3 10 -11 7 -6 10 22 10 28 0 36 -4 34 -17z m1384 -18 c0
-33 -2 -35 -35 -35 -33 0 -35 2 -35 35 0 33 2 35 35 35 33 0 35 -2 35 -35z
m150 10 c0 -14 -6 -25 -12 -25 -9 0 -8 -4 2 -10 11 -7 8 -10 -16 -10 -17 0
-34 3 -37 6 -9 9 11 44 26 44 7 0 6 -4 -3 -10 -17 -11 -10 -13 14 -4 26 10 18
22 -14 20 -16 -1 -30 1 -30 6 0 4 16 8 35 8 31 0 35 -3 35 -25z m160 5 c0 -12
-7 -20 -16 -20 -14 0 -14 3 -4 15 10 12 9 15 -5 15 -13 0 -16 -6 -12 -21 4
-15 2 -19 -9 -15 -8 3 -14 0 -14 -6 0 -6 11 -8 30 -4 19 3 29 2 25 -4 -3 -6
-19 -10 -36 -10 -32 0 -40 24 -16 49 10 11 10 13 0 7 -7 -4 -13 -2 -13 3 0 6
16 11 35 11 28 0 35 -4 35 -20z m-1700 -40 c0 -5 -15 -9 -32 -9 l-33 1 30 8
c17 4 31 8 33 9 1 0 2 -3 2 -9z m1465 -49 c0 -16 -4 -33 -8 -37 -4 -5 -5 0 -1
11 6 16 5 18 -7 9 -32 -25 -49 -24 -49 1 0 16 6 25 15 25 8 0 15 5 15 10 0 6
8 10 18 10 12 0 17 -8 17 -29z m154 -8 c-1 -21 -4 -29 -6 -19 -4 15 -7 16 -13
5 -5 -7 -12 -11 -15 -7 -3 3 1 13 10 21 8 9 11 18 6 22 -5 3 -12 -4 -16 -15
-3 -11 -11 -20 -16 -20 -6 0 -7 -5 -3 -12 4 -7 3 -8 -4 -4 -7 4 -12 20 -12 37
0 27 3 29 35 29 34 0 35 -1 34 -37z m194 6 c21 0 21 -1 3 -8 -14 -5 -16 -10
-8 -15 17 -10 32 2 32 25 0 16 -5 19 -22 14 -18 -5 -20 -4 -8 4 28 20 41 13
38 -21 -3 -29 -7 -33 -34 -34 -29 -1 -31 1 -31 35 0 20 2 28 4 19 2 -10 14
-18 26 -19z m-1809 -47 c2 -4 1 -14 -5 -22 -7 -13 -9 -12 -9 3 0 11 -7 17 -22
16 -17 -1 -19 -2 -5 -6 9 -2 17 -12 17 -21 0 -15 -2 -15 -10 -2 -6 10 -10 11
-10 3 0 -24 -16 -13 -18 12 -1 21 2 25 28 25 16 0 31 -4 34 -8z m1344 -4 c9
-9 12 -9 12 0 0 7 7 12 15 12 11 0 15 -11 15 -37 0 -21 -4 -33 -8 -27 -4 6
-18 14 -32 18 l-25 7 24 -14 24 -14 -26 0 c-24 0 -27 3 -27 33 0 36 8 42 28
22z m152 2 c0 -5 -7 -10 -16 -10 -8 0 -12 5 -9 10 3 6 10 10 16 10 5 0 9 -4 9
-10z m39 -27 c0 -21 -3 -32 -6 -25 -2 6 -12 12 -21 12 -15 0 -15 -2 -2 -10 13
-8 12 -10 -2 -10 -10 0 -18 6 -18 13 0 8 -4 7 -10 -3 -11 -17 -13 -10 -4 14 4
11 13 14 30 10 19 -5 24 -2 23 12 0 11 -3 14 -6 7 -2 -7 -9 -13 -15 -13 -6 0
-6 6 2 15 20 25 30 17 29 -22z m159 15 c2 -10 -1 -18 -7 -18 -6 0 -8 8 -4 18
5 14 3 15 -8 5 -18 -18 -49 -16 -49 3 0 23 64 15 68 -8z m-38 -27 c0 -5 9 -7
20 -4 11 3 20 0 20 -6 0 -6 -16 -11 -35 -11 -24 0 -35 5 -35 15 0 8 7 15 15
15 8 0 15 -4 15 -9z m-1672 -18 c-10 -2 -26 -2 -35 0 -10 3 -2 5 17 5 19 0 27
-2 18 -5z m1322 -39 c0 -14 -4 -23 -10 -19 -5 3 -10 2 -10 -4 0 -5 6 -12 13
-14 6 -3 -5 -6 -25 -6 -21 -1 -38 3 -38 9 0 5 7 7 15 3 9 -3 22 2 30 13 20 26
19 29 -10 32 -14 1 -25 -3 -25 -8 0 -5 7 -7 15 -4 11 5 13 2 9 -10 -9 -22 -28
-15 -32 12 -3 19 1 22 32 22 32 0 36 -3 36 -26z m157 6 c-1 -11 -5 -20 -9 -20
-4 0 -8 -5 -8 -11 0 -5 5 -7 10 -4 6 3 10 1 10 -4 0 -6 -16 -11 -35 -11 -40 0
-48 22 -17 47 16 14 16 14 0 9 -10 -3 -18 -1 -18 4 0 6 15 10 34 10 29 0 34
-4 33 -20z m153 -15 c0 -33 -2 -35 -35 -35 -33 0 -35 2 -35 35 0 33 2 35 35
35 33 0 35 -2 35 -35z m230 0 c0 -33 -2 -35 -35 -35 -33 0 -35 2 -35 35 0 33
2 35 35 35 33 0 35 -2 35 -35z m-1849 -52 c0 -5 2 -18 3 -31 2 -13 -2 -26 -7
-29 -6 -3 -7 -1 -3 5 4 7 2 12 -3 12 -6 0 -11 -5 -11 -12 0 -6 -3 -8 -6 -5 -4
4 -1 13 6 22 7 8 8 15 3 15 -5 0 -18 7 -29 15 -18 14 -17 14 14 15 17 0 32 -3
33 -7z m1229 -19 c-13 -33 -13 -37 3 -28 6 4 8 3 4 -1 -15 -17 -36 -13 -34 6
1 10 5 19 9 19 4 0 8 6 8 13 -1 6 -10 1 -21 -12 -11 -13 -22 -21 -26 -18 -3 4
0 14 8 24 9 11 10 14 2 9 -7 -4 -13 -2 -13 3 0 6 16 11 35 11 33 0 34 -1 25
-26z m160 -8 c0 -32 -2 -34 -35 -34 -33 0 -35 2 -35 34 0 32 2 34 35 34 33 0
35 -2 35 -34z m150 16 c0 -10 -6 -24 -12 -31 -10 -11 -10 -13 0 -7 6 4 12 2
12 -3 0 -10 -46 -12 -63 -3 -4 2 -1 15 9 29 15 24 15 26 0 20 -9 -4 -16 -2
-16 3 0 6 16 10 35 10 27 0 35 -4 35 -18z m157 -14 c-3 -29 -7 -33 -35 -36
-46 -5 -45 31 1 46 l32 11 -32 -5 c-20 -3 -33 -1 -33 5 0 6 16 11 36 11 34 0
35 -1 31 -32z m-1727 -2 c0 -2 -7 -6 -15 -10 -8 -3 -15 -1 -15 4 0 6 7 10 15
10 8 0 15 -2 15 -4z m108 -77 c2 -26 0 -30 -8 -19 -6 10 -10 11 -10 3 0 -7
-11 -12 -25 -11 -17 2 -25 8 -22 18 2 10 12 14 30 12 20 -2 27 2 27 15 0 11
-3 14 -8 7 -7 -11 -52 -14 -52 -4 0 12 9 16 37 15 24 -1 28 -6 31 -36z m1065
29 c13 3 17 -4 17 -28 0 -29 -1 -30 -16 -16 -8 9 -20 16 -25 16 -6 0 -7 5 -4
10 3 6 1 10 -4 10 -18 0 -12 -18 10 -33 20 -15 20 -15 -3 -13 -18 1 -25 7 -26
24 -2 30 6 44 21 35 7 -4 20 -6 30 -5z m167 -26 c0 -22 -5 -28 -25 -30 -14 -1
-25 4 -25 11 0 8 -4 7 -11 -3 -8 -12 -9 -11 -7 5 3 15 10 19 31 17 20 -2 27 2
27 15 0 15 -2 16 -10 3 -5 -8 -10 -10 -10 -4 0 6 3 14 6 17 12 12 24 -4 24
-31z m114 29 c3 -5 16 -7 29 -5 20 4 20 4 2 -4 -11 -5 -27 -7 -35 -5 -11 4
-12 3 -3 -4 10 -7 10 -13 -2 -29 -13 -18 -14 -17 -15 19 0 35 12 48 24 28z
m190 -4 c3 4 6 -9 6 -28 0 -26 -3 -30 -10 -19 -5 8 -10 10 -10 4 0 -7 -11 -11
-25 -10 -20 1 -25 6 -25 27 0 34 7 40 35 29 13 -5 26 -6 29 -3z m-344 -1 c0
-2 -7 -6 -15 -10 -8 -3 -15 -1 -15 4 0 6 7 10 15 10 8 0 15 -2 15 -4z m196
-53 c-3 -4 -6 -1 -6 7 0 10 -3 10 -15 0 -22 -18 -29 -6 -9 15 16 16 18 16 27
0 5 -9 6 -19 3 -22z m-1466 -30 c0 -15 -2 -16 -10 -3 -14 21 -13 -5 0 -31 10
-17 7 -19 -19 -19 -28 0 -30 2 -29 35 1 31 4 35 30 35 20 0 28 -5 28 -17z
m160 -19 c0 -32 -2 -34 -35 -34 -33 0 -35 2 -35 34 0 32 2 34 35 34 33 0 35
-2 35 -34z m1071 16 c-2 -8 -4 -23 -5 -32 -1 -27 -56 -25 -56 2 0 17 5 19 25
14 20 -5 25 -3 24 12 0 11 -3 14 -6 7 -2 -7 -9 -13 -14 -13 -6 0 -7 5 -3 12 5
8 2 9 -9 5 -10 -3 -17 -2 -17 4 0 6 15 9 33 7 23 -2 31 -7 28 -18z m159 -15
c0 -33 -2 -35 -35 -35 -29 0 -35 4 -35 21 0 17 4 20 28 14 22 -4 29 -2 29 9 0
12 -4 13 -14 5 -9 -8 -13 -8 -13 -1 0 6 -7 9 -15 6 -8 -4 -15 -1 -15 5 0 6 16
11 35 11 33 0 35 -2 35 -35z m148 -1 c-2 -32 -4 -34 -36 -34 -34 0 -34 0 -18
25 15 23 13 30 -7 26 -5 -1 -6 2 -3 7 3 5 19 9 36 10 29 1 30 -1 28 -34z
m-1167 -111 c-12 -20 -14 -14 -5 12 4 9 9 14 11 11 3 -2 0 -13 -6 -23z"/>
<path d="M2164 2605 c11 -8 22 -12 25 -9 6 6 -19 24 -34 24 -5 -1 -1 -7 9 -15z"/>
<path d="M2800 2549 c12 -8 8 -9 -15 -6 -16 2 -24 2 -17 0 6 -3 12 -8 12 -13
0 -5 -6 -8 -12 -6 -7 1 -10 1 -5 -1 4 -3 7 -9 7 -14 0 -6 -4 -7 -10 -4 -6 4
-10 -5 -10 -19 0 -27 -15 -35 -23 -13 -3 7 -6 5 -6 -5 -1 -25 30 -22 36 3 5
19 7 19 23 -6 10 -15 20 -22 24 -17 4 6 -1 15 -10 20 -9 5 -14 18 -12 33 3 21
8 24 43 22 34 -2 36 -1 15 7 -14 4 -20 9 -15 9 12 2 -16 21 -30 21 -5 0 -3 -5
5 -11z"/>
<path d="M2793 2493 c0 -17 7 -16 31 2 19 15 19 15 -5 13 -14 -1 -26 -8 -26
-15z"/>
<path d="M2130 2445 c0 -32 -2 -35 -29 -35 -49 0 -57 -7 -53 -46 2 -19 0 -34
-4 -33 -5 1 -21 1 -36 0 -26 -1 -28 -4 -28 -41 l0 -40 40 0 c39 0 40 1 40 35
0 35 12 46 26 23 4 -7 3 -8 -4 -4 -7 4 -12 2 -12 -3 0 -13 11 -14 35 -5 13 5
14 8 3 15 -9 6 -7 9 10 9 19 0 22 5 22 40 l0 40 186 0 186 0 -4 -35 c-4 -38 4
-45 54 -45 28 0 30 -2 26 -34 -3 -30 -1 -35 22 -38 50 -7 60 0 60 46 l0 42
-35 -4 c-35 -4 -35 -4 -35 37 l0 41 -40 0 c-39 0 -40 1 -40 35 l0 35 -195 0
-195 0 0 -35z"/>
<path d="M2680 2470 c0 -5 7 -10 15 -10 8 0 15 5 15 10 0 6 -7 10 -15 10 -8 0
-15 -4 -15 -10z"/>
<path d="M2681 2433 c-1 -20 4 -23 32 -22 17 0 26 3 20 6 -7 2 -13 11 -13 19
0 8 -5 14 -11 14 -6 0 -9 -7 -5 -15 3 -8 1 -15 -4 -15 -5 0 -11 8 -13 18 -4
13 -5 11 -6 -5z"/>
<path d="M2745 2440 c-17 -6 -16 -7 8 -12 15 -3 27 -2 27 3 0 13 -14 17 -35 9z"/>
<path d="M1986 2392 c-3 -6 2 -8 12 -5 12 3 22 -4 30 -19 l12 -23 -3 25 c-2
26 -39 41 -51 22z"/>
<path d="M2610 2389 c0 -7 10 -9 24 -5 20 5 25 2 29 -16 4 -20 4 -19 6 5 1 24
-3 27 -29 27 -16 0 -30 -5 -30 -11z"/>
<path d="M2150 2381 c0 -5 10 -7 22 -3 12 3 19 1 15 -5 -3 -5 0 -10 7 -10 8 0
12 6 9 14 -6 14 -53 18 -53 4z"/>
<path d="M2263 2382 c33 -2 55 -7 52 -13 -4 -5 3 -9 15 -9 12 0 18 5 15 10 -4
6 5 10 19 10 14 0 26 -6 26 -12 0 -10 2 -10 9 0 7 11 10 10 15 -3 3 -9 6 -18
6 -20 0 -5 -38 3 -50 10 -6 3 -10 -1 -10 -9 0 -12 10 -16 36 -16 33 0 36 2 32
25 -3 13 0 26 6 29 6 2 -43 4 -109 3 -66 -1 -94 -3 -62 -5z"/>
<path d="M2456 2364 c4 -17 3 -25 -3 -21 -6 4 -10 -5 -9 -22 1 -26 3 -28 24
-20 41 16 48 9 9 -8 -44 -18 -33 -34 18 -28 l30 5 -27 -12 c-16 -7 -28 -15
-28 -20 0 -4 16 0 34 9 19 9 34 21 33 26 -1 6 9 13 23 17 l25 6 -24 7 c-17 4
-28 1 -36 -10 -7 -9 -18 -13 -26 -10 -10 4 -9 6 4 6 9 1 17 7 17 15 0 17 -38
28 -43 12 -8 -20 -16 -1 -10 23 4 17 8 19 14 9 7 -10 9 -9 9 5 0 9 -7 17 -16
17 -8 0 -12 5 -9 10 3 6 1 10 -5 10 -6 0 -8 -10 -4 -26z"/>
<path d="M2635 2370 c-3 -5 -3 -10 2 -11 4 0 -1 -4 -12 -9 -19 -8 -19 -9 3 -9
16 -1 22 5 22 19 0 22 -5 26 -15 10z"/>
<path d="M1986 2361 c-3 -5 1 -12 10 -15 22 -8 25 -4 9 11 -8 7 -16 9 -19 4z"/>
<path d="M2220 2357 c0 -10 -7 -15 -19 -12 -14 2 -20 -3 -24 -21 -3 -19 0 -24
17 -24 17 0 18 2 6 10 -25 16 -3 23 70 21 48 -1 69 2 65 9 -4 6 -20 9 -35 6
-21 -3 -30 0 -33 12 -4 14 -5 13 -6 -2 -1 -18 -2 -18 -21 -1 -17 16 -20 16
-20 2z"/>
<path d="M2150 2319 c0 -5 5 -7 10 -4 6 3 10 8 10 11 0 2 -4 4 -10 4 -5 0 -10
-5 -10 -11z"/>
<path d="M2155 2290 c3 -6 1 -10 -5 -10 -6 0 -8 -4 -5 -10 9 -15 35 -12 35 4
0 8 -7 17 -16 20 -8 3 -12 2 -9 -4z"/>
<path d="M1890 2280 c0 -6 -12 -8 -27 -4 -22 4 -25 3 -13 -5 22 -16 50 -13 50
4 0 8 -2 15 -5 15 -3 0 -5 -5 -5 -10z"/>
<path d="M2091 2281 c-8 -5 -9 -11 -3 -15 6 -3 13 -2 17 4 4 6 11 8 16 5 5 -4
9 -1 9 4 0 13 -20 14 -39 2z"/>
<path d="M2193 2275 c0 -8 4 -15 9 -15 4 0 8 7 8 15 0 8 -4 15 -8 15 -5 0 -9
-7 -9 -15z"/>
<path d="M2550 2268 c0 -4 4 -8 9 -8 6 0 12 4 15 8 3 5 -1 9 -9 9 -8 0 -15 -4
-15 -9z"/>
<path d="M2100 2252 c-8 -4 -15 -16 -14 -28 1 -17 -4 -19 -27 -16 -16 2 -27 9
-26 15 1 6 -7 12 -18 14 -16 3 -17 2 -5 -6 13 -10 13 -11 0 -12 -8 -1 3 -7 25
-15 l40 -14 -38 4 c-30 4 -35 2 -24 -8 7 -7 24 -12 37 -11 14 1 28 -2 31 -8 4
-5 10 4 14 22 3 17 13 31 21 31 8 0 14 5 14 11 0 5 -4 7 -10 4 -5 -3 -10 -2
-10 4 0 5 8 12 18 14 11 3 12 5 2 5 -8 0 -22 -2 -30 -6z"/>
<path d="M2290 2189 c0 -50 3 -59 18 -59 13 0 14 2 3 9 -11 7 -11 9 0 14 10 4
10 6 2 6 -7 1 -13 8 -13 16 0 9 6 12 15 9 8 -4 15 -2 15 4 0 5 -7 12 -15 16
-20 7 -19 33 0 33 9 0 14 -6 11 -14 -3 -7 -1 -13 4 -13 6 0 10 5 10 11 0 6 6
9 13 6 7 -3 21 1 30 8 15 10 9 12 -38 13 l-55 0 0 -59z"/>
<path d="M2410 2236 c0 -8 -7 -16 -15 -20 -8 -3 -15 -15 -15 -26 0 -12 5 -18
10 -15 6 4 8 10 5 15 -3 5 4 14 15 20 21 11 28 40 10 40 -5 0 -10 -6 -10 -14z"/>
<path d="M2435 2222 c-4 -18 -4 -36 -1 -39 3 -4 6 5 7 18 l1 24 8 -25 c6 -20
8 -21 8 -5 0 11 -3 29 -7 40 -7 17 -9 16 -16 -13z"/>
<path d="M2560 2239 c0 -5 11 -9 25 -9 14 0 25 2 25 4 0 2 -11 6 -25 8 -14 3
-25 1 -25 -3z"/>
<path d="M2620 2220 c-11 -11 -30 -20 -42 -19 -22 1 -22 1 2 9 24 8 23 8 -7 9
-42 1 -43 -17 -2 -26 22 -4 27 -8 17 -14 -10 -7 -9 -9 4 -9 10 0 24 12 32 28
8 15 16 25 16 22 8 -32 6 -40 -11 -45 -17 -6 -19 -17 -19 -122 0 -100 -3 -118
-20 -140 -24 -31 -28 -62 -6 -41 8 7 12 16 10 19 -2 3 3 15 12 25 14 18 14 18
12 -6 -2 -19 2 -26 19 -28 l22 -3 0 165 c-1 98 -5 169 -11 172 -6 4 -5 10 3
15 10 6 11 9 2 9 -7 0 -22 -9 -33 -20z m30 -181 c0 -71 -3 -128 -7 -126 -8 5
-5 257 3 257 2 0 4 -59 4 -131z m-3 -145 c-3 -3 -12 -4 -19 -1 -8 3 -5 6 6 6
11 1 17 -2 13 -5z"/>
<path d="M2116 2199 c3 -6 0 -15 -7 -20 -10 -6 -11 -9 -1 -9 7 0 12 -14 12
-35 0 -21 -5 -35 -12 -35 -9 0 -8 -4 2 -10 12 -8 12 -10 -5 -10 -18 -1 -18 -2
-4 -13 10 -8 16 -29 16 -60 1 -27 4 -51 7 -54 3 -4 6 53 6 125 0 86 -4 132
-11 132 -5 0 -7 -5 -3 -11z"/>
<path d="M2349 2208 c-6 -21 -5 -38 2 -38 5 0 9 9 9 20 0 16 -7 28 -11 18z"/>
<path d="M2085 2120 c-4 -12 -5 -24 -2 -27 3 -2 8 5 12 17 4 12 5 24 2 27 -3
2 -8 -5 -12 -17z"/>
<path d="M2290 2116 c0 -2 7 -6 15 -10 8 -3 15 -1 15 4 0 6 -7 10 -15 10 -8 0
-15 -2 -15 -4z"/>
<path d="M2291 2083 c-1 -13 -5 -23 -11 -23 -5 0 -10 -11 -10 -25 0 -34 20
-32 21 3 0 24 1 25 9 7 11 -25 11 1 0 35 -8 24 -8 24 -9 3z"/>
<path d="M2229 2081 c11 -7 10 -10 -5 -14 -16 -4 -16 -5 4 -6 14 -1 22 -8 23
-18 0 -15 2 -15 9 2 5 11 9 27 9 35 1 13 0 13 -9 0 -6 -10 -10 -11 -10 -2 0 6
-8 12 -17 12 -15 0 -15 -2 -4 -9z"/>
<path d="M2080 2049 c0 -5 5 -7 10 -4 6 3 10 8 10 11 0 2 -4 4 -10 4 -5 0 -10
-5 -10 -11z"/>
<path d="M2210 2046 c0 -2 7 -6 15 -10 8 -3 15 -1 15 4 0 6 -7 10 -15 10 -8 0
-15 -2 -15 -4z"/>
<path d="M2089 2021 c9 -6 10 -11 2 -15 -6 -4 -11 -15 -11 -24 1 -12 5 -10 14
8 15 26 12 40 -7 40 -8 0 -8 -3 2 -9z"/>
<path d="M2211 2007 c0 -7 4 -21 8 -31 7 -18 9 -17 18 10 9 26 8 30 -8 31 -11
1 -19 -4 -18 -10z"/>
<path d="M2087 1954 c-8 -8 1 -24 14 -24 5 0 9 7 9 15 0 15 -12 20 -23 9z"/>
<path d="M2123 1923 c0 -7 9 -13 19 -13 20 0 25 -16 6 -23 -7 -2 -10 -7 -7
-11 10 -10 39 5 39 20 0 7 -8 18 -17 23 -16 9 -16 10 -1 11 9 0 18 -5 20 -12
3 -7 7 -5 11 5 6 15 1 17 -31 16 -24 -2 -39 -8 -39 -16z"/>
<path d="M2211 1930 c0 -8 4 -24 9 -35 5 -13 9 -14 9 -5 0 8 -4 24 -9 35 -5
13 -9 14 -9 5z"/>
<path d="M2028 1918 c5 -5 16 -8 23 -6 8 3 3 7 -10 11 -17 4 -21 3 -13 -5z"/>
<path d="M2070 1921 c0 -5 -3 -17 -7 -27 -6 -15 -4 -15 14 2 20 19 21 34 2 34
-5 0 -9 -4 -9 -9z"/>
<path d="M1997 1903 c-10 -10 -8 -23 4 -23 5 0 8 4 5 9 -4 5 0 12 6 14 7 3 8
6 2 6 -6 1 -14 -2 -17 -6z"/>
<path d="M2548 1903 c7 -3 16 -2 19 1 4 3 -2 6 -13 5 -11 0 -14 -3 -6 -6z"/>
<path d="M2025 1890 c-3 -6 1 -7 9 -4 18 7 21 14 7 14 -6 0 -13 -4 -16 -10z"/>
<path d="M2190 1891 c0 -5 -3 -18 -6 -28 -5 -15 -4 -16 5 -3 10 13 12 13 22 0
9 -13 10 -12 5 3 -3 10 -6 23 -6 28 0 5 -4 9 -10 9 -5 0 -10 -4 -10 -9z"/>
<path d="M2095 1880 c4 -6 11 -8 16 -5 14 9 11 15 -7 15 -8 0 -12 -5 -9 -10z"/>
<path d="M2105 1851 c-3 -6 4 -8 15 -6 11 2 18 0 15 -6 -4 -5 -1 -9 4 -9 6 0
11 7 11 15 0 16 -35 21 -45 6z"/>
<path d="M2556 1846 c10 -8 21 -12 24 -10 5 6 -21 24 -34 24 -6 0 -1 -6 10
-14z"/>
<path d="M2072 1840 c6 -33 48 -55 48 -24 0 8 -5 12 -11 9 -6 -4 -17 1 -25 11
-10 14 -14 15 -12 4z"/>
<path d="M2138 1813 c7 -3 16 -2 19 1 4 3 -2 6 -13 5 -11 0 -14 -3 -6 -6z"/>
<path d="M1992 1761 c-8 -5 -12 -16 -10 -25 2 -12 6 -10 15 9 6 14 10 25 10
25 -1 0 -8 -4 -15 -9z"/>
<path d="M2025 1760 c-3 -5 -1 -10 4 -10 6 0 11 5 11 10 0 6 -2 10 -4 10 -3 0
-8 -4 -11 -10z"/>
<path d="M2413 1753 c9 -2 25 -2 35 0 9 3 1 5 -18 5 -19 0 -27 -2 -17 -5z"/>
<path d="M2010 1730 c0 -5 5 -10 10 -10 6 0 10 5 10 10 0 6 -4 10 -10 10 -5 0
-10 -4 -10 -10z"/>
<path d="M2413 1733 c9 -2 23 -2 30 0 6 3 -1 5 -18 5 -16 0 -22 -2 -12 -5z"/>
<path d="M1530 2520 c0 -11 5 -20 10 -20 6 0 10 9 10 20 0 11 -4 20 -10 20 -5
0 -10 -9 -10 -20z"/>
<path d="M1560 2530 c0 -5 5 -10 10 -10 6 0 10 5 10 10 0 6 -4 10 -10 10 -5 0
-10 -4 -10 -10z"/>
<path d="M1532 2430 c0 -14 2 -19 5 -12 2 6 2 18 0 25 -3 6 -5 1 -5 -13z"/>
<path d="M1556 2423 c-4 -9 -3 -20 2 -25 6 -6 11 1 14 16 6 29 -6 35 -16 9z"/>
<path d="M1544 2373 c2 -13 0 -23 -5 -23 -5 0 -9 -9 -9 -20 0 -11 4 -20 9 -20
5 0 8 7 7 16 -2 23 32 43 43 25 7 -10 13 -11 27 -2 18 10 17 10 -4 11 -13 0
-21 4 -17 9 3 5 1 12 -5 16 -5 3 -10 1 -10 -4 0 -15 -27 -14 -34 2 -4 6 -4 2
-2 -10z"/>
<path d="M1610 2380 c0 -5 7 -10 15 -10 7 0 19 -8 24 -17 6 -10 11 -13 11 -6
0 14 -27 43 -41 43 -5 0 -9 -4 -9 -10z"/>
<path d="M1565 2330 c3 -5 8 -10 11 -10 2 0 4 5 4 10 0 6 -5 10 -11 10 -5 0
-7 -4 -4 -10z"/>
<path d="M1546 2301 c-19 -7 -18 -8 4 -14 13 -3 26 -4 29 -2 2 3 -2 5 -10 5
-11 0 -11 2 1 10 18 11 3 12 -24 1z"/>
<path d="M1540 2270 c8 -5 22 -10 30 -10 13 0 13 1 0 10 -8 5 -22 10 -30 10
-13 0 -13 -1 0 -10z"/>
<path d="M1555 2239 c-4 -5 5 -9 19 -9 37 0 55 -10 49 -27 -5 -12 -2 -12 15 3
12 9 18 22 15 28 -4 6 -8 6 -11 -2 -2 -7 -8 -9 -13 -6 -22 13 -69 22 -74 13z"/>
<path d="M1547 2115 c-18 -13 -18 -14 5 -26 20 -11 22 -11 10 3 -10 13 -10 17
0 21 7 2 11 7 8 10 -3 3 -13 -1 -23 -8z"/>
<path d="M1605 2070 c-2 -4 9 -7 25 -8 17 0 30 3 30 7 0 10 -49 11 -55 1z"/>
<path d="M1551 2023 c-13 -12 -19 -23 -13 -23 6 0 17 -3 26 -6 9 -3 16 -1 16
6 0 6 -4 8 -10 5 -5 -3 -10 -1 -10 4 0 6 4 11 8 11 5 0 16 6 26 13 16 12 16
13 -1 13 -10 1 -29 -10 -42 -23z"/>
<path d="M1545 1970 l-20 -9 20 -1 c20 -1 20 -2 0 -9 -17 -7 -17 -8 8 -15 15
-3 27 -11 27 -17 0 -6 -6 -9 -13 -6 -6 2 -17 -1 -23 -7 -8 -9 2 -12 41 -12 29
1 48 4 42 8 -9 6 -9 8 0 8 7 0 16 -7 21 -17 8 -13 10 -12 10 9 0 19 -5 24 -22
23 -11 -1 -33 2 -48 7 -23 8 -26 13 -18 29 12 21 6 22 -25 9z"/>
<path d="M1531 1864 c0 -11 3 -14 6 -6 3 7 2 16 -1 19 -3 4 -6 -2 -5 -13z"/>
<path d="M1546 1785 c10 -8 28 -14 39 -14 14 0 10 4 -14 14 -42 19 -50 19 -25
0z"/>
<path d="M1537 1739 c7 -7 15 -10 18 -7 3 3 -2 9 -12 12 -14 6 -15 5 -6 -5z"/>
<path d="M1842 2460 c5 -18 48 -26 48 -10 0 7 -6 10 -14 7 -7 -3 -19 0 -26 6
-10 9 -11 9 -8 -3z"/>
<path d="M3393 2463 c9 -2 23 -2 30 0 6 3 -1 5 -18 5 -16 0 -22 -2 -12 -5z"/>
<path d="M3398 2443 c6 -2 10 -9 6 -14 -3 -5 0 -9 5 -9 6 0 11 7 11 15 0 8 -8
15 -17 14 -11 0 -13 -3 -5 -6z"/>
<path d="M1790 2380 c-13 -8 -12 -10 3 -10 9 0 17 5 17 10 0 12 -1 12 -20 0z"/>
<path d="M2845 2380 c-3 -6 1 -7 9 -4 20 8 20 0 0 -20 -14 -15 -13 -16 10 -16
14 0 26 5 26 11 0 5 -6 7 -12 3 -10 -6 -10 -4 0 7 6 7 12 17 12 21 0 11 -38
10 -45 -2z"/>
<path d="M3300 2379 c0 -5 8 -9 18 -9 15 -1 15 -2 -2 -15 -11 -8 -15 -15 -9
-15 7 0 15 5 19 11 5 8 9 7 14 -1 5 -8 8 -4 7 11 -2 17 -8 24 -24 25 -13 1
-23 -2 -23 -7z"/>
<path d="M3530 2380 c0 -13 25 -40 37 -40 12 0 14 38 2 45 -5 3 -6 -1 -3 -9 8
-20 0 -20 -20 0 -10 9 -16 11 -16 4z"/>
<path d="M3155 2350 c-3 -5 -1 -10 4 -10 6 0 11 5 11 10 0 6 -2 10 -4 10 -3 0
-8 -4 -11 -10z"/>
<path d="M1715 2300 c-3 -5 -1 -10 4 -10 6 0 11 5 11 10 0 6 -2 10 -4 10 -3 0
-8 -4 -11 -10z"/>
<path d="M3185 2200 c-3 -5 -1 -10 4 -10 6 0 11 5 11 10 0 6 -2 10 -4 10 -3 0
-8 -4 -11 -10z"/>
<path d="M3326 2214 c-9 -24 -2 -26 12 -4 7 11 8 20 3 20 -5 0 -12 -7 -15 -16z"/>
<path d="M3543 2233 c20 -5 23 -29 5 -37 -7 -3 -4 -5 6 -3 11 1 20 11 22 25 3
18 -1 22 -24 21 -16 -1 -20 -3 -9 -6z"/>
<path d="M1715 2150 c3 -5 8 -10 11 -10 2 0 4 5 4 10 0 6 -5 10 -11 10 -5 0
-7 -4 -4 -10z"/>
<path d="M3070 2150 c0 -9 5 -11 30 -14 21 -2 14 17 -7 20 -13 2 -23 -1 -23
-6z"/>
<path d="M3228 2113 c7 -3 16 -2 19 1 4 3 -2 6 -13 5 -11 0 -14 -3 -6 -6z"/>
<path d="M3172 2068 c-7 -7 -12 -16 -12 -21 0 -5 7 -1 16 8 9 9 14 18 12 20
-2 3 -10 -1 -16 -7z"/>
<path d="M3300 2069 c0 -5 5 -7 10 -4 6 3 10 8 10 11 0 2 -4 4 -10 4 -5 0 -10
-5 -10 -11z"/>
<path d="M3081 1989 c18 -11 39 -11 39 0 0 5 -12 9 -26 9 -18 0 -22 -3 -13 -9z"/>
<path d="M3388 2003 c7 -3 16 -2 19 1 4 3 -2 6 -13 5 -11 0 -14 -3 -6 -6z"/>
<path d="M3168 1911 c-9 -11 -14 -22 -11 -25 8 -7 35 22 31 34 -2 6 -11 2 -20
-9z"/>
<path d="M3300 1919 c0 -5 4 -9 9 -9 5 0 16 -3 25 -6 10 -4 16 -1 16 9 0 9
-10 15 -25 15 -14 0 -25 -4 -25 -9z"/>
<path d="M3305 1890 c3 -5 10 -10 16 -10 5 0 9 5 9 10 0 6 -7 10 -16 10 -8 0
-12 -4 -9 -10z"/>
<path d="M3534 1907 c1 -25 46 -36 46 -10 0 8 -4 12 -9 8 -5 -3 -16 1 -24 10
-13 13 -15 12 -13 -8z"/>
<path d="M3558 1923 c7 -3 16 -2 19 1 4 3 -2 6 -13 5 -11 0 -14 -3 -6 -6z"/>
<path d="M3070 1840 c0 -6 5 -10 11 -10 8 0 8 -5 -1 -15 -7 -8 -10 -15 -8 -15
7 0 52 40 47 41 -2 0 -14 2 -26 5 -13 2 -23 -1 -23 -6z"/>
<path d="M3242 1825 c-12 -14 -18 -25 -14 -25 10 0 45 41 39 46 -2 2 -13 -7
-25 -21z"/>
<path d="M3398 1823 c-10 -2 -18 -8 -18 -12 0 -12 25 -9 38 6 13 13 10 14 -20
6z"/>
<path d="M2875 1760 c-3 -5 -1 -10 4 -10 6 0 11 5 11 10 0 6 -2 10 -4 10 -3 0
-8 -4 -11 -10z"/>
<path d="M3321 1751 c-7 -5 -9 -11 -5 -14 5 -3 15 1 22 9 14 16 5 18 -17 5z"/>
<path d="M1696 1685 c4 -8 8 -15 10 -15 2 0 4 7 4 15 0 8 -4 15 -10 15 -5 0
-7 -7 -4 -15z"/>
<path d="M1840 1690 c0 -5 5 -10 11 -10 5 0 7 5 4 10 -3 6 -8 10 -11 10 -2 0
-4 -4 -4 -10z"/>
<path d="M1853 1663 c9 -2 23 -2 30 0 6 3 -1 5 -18 5 -16 0 -22 -2 -12 -5z"/>
<path d="M2928 1653 c7 -3 16 -2 19 1 4 3 -2 6 -13 5 -11 0 -14 -3 -6 -6z"/>
<path d="M3088 1653 c6 -2 18 -2 25 0 6 3 1 5 -13 5 -14 0 -19 -2 -12 -5z"/>
<path d="M3256 1691 c-4 -7 -5 -15 -2 -18 9 -9 19 4 14 18 -4 11 -6 11 -12 0z"/>
<path d="M2695 3219 c-15 -16 -16 -19 -3 -14 9 4 19 2 23 -4 3 -6 12 -11 18
-11 7 0 4 5 -5 11 -10 5 -15 16 -12 24 8 20 3 18 -21 -6z"/>
<path d="M1995 3150 c-4 -6 -1 -9 7 -8 7 2 12 -2 11 -9 -2 -7 4 -10 12 -7 12
5 12 8 0 20 -16 17 -22 17 -30 4z"/>
<path d="M3393 3153 c-7 -2 -13 -12 -12 -21 0 -11 2 -12 6 -4 2 6 9 10 14 6 5
-3 9 2 9 10 0 9 -1 16 -2 15 -2 0 -9 -3 -15 -6z"/>
<path d="M2840 2996 c0 -16 27 -29 35 -16 3 5 -2 11 -10 13 -11 4 -10 5 2 3
10 -1 19 -10 21 -20 3 -15 -1 -18 -22 -14 -14 3 -26 1 -26 -3 0 -5 14 -9 30
-9 27 0 30 3 30 30 0 27 -3 30 -30 30 -19 0 -30 -5 -30 -14z"/>
<path d="M3420 2969 c0 -6 -7 -9 -15 -6 -8 4 -17 2 -20 -3 -4 -6 7 -10 24 -10
21 0 31 5 31 15 0 8 -4 15 -10 15 -5 0 -10 -5 -10 -11z"/>
<path d="M3521 2888 c1 -29 4 -43 6 -30 2 12 10 22 18 22 15 0 8 -41 -9 -52
-19 -13 2 -20 22 -7 19 12 28 59 11 59 -5 0 -9 12 -8 28 0 24 1 25 9 7 8 -19
9 -19 9 3 1 18 -4 22 -29 22 -30 0 -30 -1 -29 -52z m29 17 c0 -8 -4 -15 -10
-15 -5 0 -10 7 -10 15 0 8 5 15 10 15 6 0 10 -7 10 -15z"/>
<path d="M3564 2806 c-3 -8 -4 -29 -2 -48 3 -29 4 -27 8 15 5 48 3 58 -6 33z"/>
<path d="M3460 2710 c-13 -8 -12 -10 3 -10 9 0 17 5 17 10 0 12 -1 12 -20 0z"/>
<path d="M3450 2671 c0 -25 6 -27 13 -6 4 8 2 17 -3 20 -6 4 -10 -3 -10 -14z"/>
<path d="M3480 2660 c-9 -6 -10 -10 -3 -10 6 0 15 5 18 10 8 12 4 12 -15 0z"/>
<path d="M2630 1760 c-8 -5 -10 -10 -5 -10 6 0 17 5 25 10 8 5 11 10 5 10 -5
0 -17 -5 -25 -10z"/>
<path d="M2633 1743 c-28 -5 -30 -18 -3 -20 11 -1 20 4 20 10 0 7 4 6 10 -3 8
-13 10 -12 10 3 0 9 -3 16 -7 16 -5 -1 -18 -4 -30 -6z"/>
<path d="M3380 1696 c0 -2 9 -6 20 -9 11 -3 20 -1 20 4 0 5 -9 9 -20 9 -11 0
-20 -2 -20 -4z"/>
</g>
</svg>
